<?xml version="1.0" encoding="utf-8"?>
<!-- Generator: Adobe Illustrator 16.0.0, SVG Export Plug-In . SVG Version: 6.00 Build 0)  -->
<!DOCTYPE svg PUBLIC "-//W3C//DTD SVG 1.1//EN" "http://www.w3.org/Graphics/SVG/1.1/DTD/svg11.dtd">
<svg version="1.1" id="Plan_1" xmlns="http://www.w3.org/2000/svg" xmlns:xlink="http://www.w3.org/1999/xlink" x="0px" y="0px"
	 width="425.197px" height="396.851px" viewBox="0 0 425.197 396.851" enable-background="new 0 0 425.197 396.851"
	 xml:space="preserve">
<polygon fill-rule="evenodd" clip-rule="evenodd" fill="#999999" stroke="#F2F2F2" stroke-miterlimit="10" points="239.601,184.414 
	241.39,177.937 236.501,177.937 234.888,184.414 239.601,184.414 "/>
<polygon fill-rule="evenodd" clip-rule="evenodd" fill="#4E4D4D" stroke="#F2F2F2" stroke-miterlimit="10" points="241.213,184.237 
	246.077,184.237 247.841,177.937 242.978,177.937 241.213,184.237 "/>
<path fill-rule="evenodd" clip-rule="evenodd" fill="#F2F2F2" stroke="#F2F2F2" stroke-miterlimit="10" d="M132.274,171.663
	l0.05,0.907v0.907l0.025,0.882v0.907l-0.025,0.882l-0.025,0.907l-0.025,0.882l-0.05,0.882l-0.051,0.857l-0.05,0.882l-0.076,0.856
	l-0.075,0.882l-0.101,0.857l-0.101,0.856l-0.101,0.882l-0.101,0.856l-0.126,0.857l-0.126,0.857l-0.126,0.832l-0.151,0.857
	l-0.126,0.832l-0.151,0.856l-0.151,0.857l-0.176,0.832l-0.151,0.857l-0.151,0.832l-0.176,0.832l-0.176,0.856l-0.177,0.832
	l-0.176,0.856l-0.176,0.832l-0.177,0.856l-0.176,0.856l-0.176,0.832l-0.202,0.856l-0.176,0.857l-0.202,0.856l-0.176,0.831
	l-0.177,0.857l-0.176,0.882l-0.176,0.856l-0.177,0.857l-0.176,0.882l-0.177,0.856l-0.151,0.882l-0.176,0.882l-0.151,0.882
	l-0.151,0.908l0,0h-1.134h-1.109h-1.134h-1.134h-1.134h-1.16l0,0l-0.353-0.504l-0.327-0.554l-0.328-0.529l-0.302-0.58l-0.252-0.554
	l-0.277-0.58l-0.227-0.604l-0.227-0.604L116.978,208l-0.177-0.63l-0.151-0.655l-0.151-0.655l-0.125-0.655l-0.126-0.655l-0.101-0.681
	l-0.075-0.68l-0.075-0.705l-0.051-0.681l-0.025-0.706l-0.025-0.73v-0.706v-0.73l0.025-0.705l0.051-0.731l0.025-0.73l0.075-0.731
	l0.075-0.756l0.076-0.73l0.101-0.731l0.101-0.731l0.126-0.756l0.126-0.73l0.151-0.731l0.151-0.731l0.151-0.731l0.176-0.731
	l0.176-0.73l0.177-0.73l0.201-0.706l0.202-0.73l0.227-0.706l0.201-0.681l0.227-0.73l0.253-0.68l0.227-0.68l0.252-0.681l0.252-0.655
	l0.252-0.655l0.252-0.655l0.277-0.63l0.252-0.63l0.277-0.604l0.276-0.605l0.278-0.604l0.302-0.554l0.277-0.58l0.302-0.529
	l0.277-0.555l0.302-0.504l0.277-0.504l0.303-0.504l0.302-0.454l0.303-0.454l0.277-0.454l0.302-0.403l0.302-0.403l0.277-0.377
	l0.302-0.378l0.302-0.354l0.277-0.327l0.277-0.277l0.303-0.277l0.277-0.252l0.277-0.252l0.277-0.201l0.252-0.177l0.277-0.151
	l0.277-0.151l0.252-0.101l0.252-0.075l0.252-0.076l0.252-0.025h0.227l0.227,0.025l0.202,0.076l0.227,0.075l0.202,0.126l0.202,0.126
	l0.177,0.176l0.176,0.227l0.177,0.227l0.151,0.277l0.151,0.303l0.152,0.353l0.125,0.378l0.126,0.403l0.101,0.454l0.101,0.479
	L132.274,171.663L132.274,171.663L132.274,171.663z M139.557,170.579L139.557,170.579l-0.201,0.655l-0.202,0.681l-0.227,0.68
	l-0.202,0.731l-0.227,0.756l-0.201,0.756l-0.227,0.781l-0.228,0.807l-0.227,0.806l-0.227,0.832l-0.227,0.857l-0.227,0.857
	l-0.227,0.882l-0.252,0.882l-0.227,0.907l-0.227,0.907l-0.228,0.907l-0.252,0.958l-0.227,0.932l-0.227,0.958l-0.252,0.933
	L134.592,189l-0.227,0.958l-0.227,0.958l-0.227,0.983l-0.227,0.958l-0.202,0.957l-0.227,0.958l-0.227,0.957l-0.202,0.958
	l-0.201,0.958l-0.202,0.958l-0.201,0.933l-0.202,0.958l-0.202,0.908l-0.176,0.932l-0.176,0.907l-0.177,0.907l-0.177,0.882
	l-0.151,0.882l-0.151,0.857l-0.151,0.856l-0.151,0.832l-0.126,0.831l-0.126,0.781l-0.126,0.807l-0.126,0.756l-0.101,0.731
	l-0.102,0.756l0,0l13.306,0.024l5.67-30.895l0,0l0.075-0.177l0.075-0.302l0.076-0.479l0.101-0.58l0.051-0.706l0.075-0.781
	l0.05-0.882l0.025-0.958l0.025-1.007v-1.059l-0.025-1.059l-0.076-1.109l-0.075-1.083l-0.126-1.084l-0.176-1.083l-0.202-1.009
	l-0.252-0.933l-0.302-0.907l-0.328-0.782l-0.403-0.705l-0.454-0.605l-0.529-0.454l-0.579-0.327l0,0l-1.059,0.05l-0.933,0.303
	l-0.832,0.479l-0.756,0.63l-0.629,0.731l-0.554,0.781l-0.454,0.831l-0.353,0.781l-0.303,0.706l-0.227,0.63L139.557,170.579
	L139.557,170.579z M139.254,156.593l0.656-0.58l0.706-0.529l0.68-0.529l0.731-0.504l0.73-0.504l0.756-0.504l0.731-0.479l0.756-0.479
	l0.781-0.479l0.756-0.453l0.781-0.429l0.807-0.454l0.806-0.428l0.807-0.403l0.807-0.403l0.807-0.403l0.831-0.403l0.832-0.378
	l0.831-0.353l0.832-0.377l0.856-0.354l0.832-0.327l0.882-0.327l0.856-0.328l0.832-0.327l0.856-0.303l0.857-0.302l0.856-0.278
	l0.856-0.302l0.832-0.277l0.856-0.252l0.857-0.252l0.831-0.252l0.857-0.251l0.831-0.227l0.832-0.227l0.831-0.201l0.832-0.227
	l0.831-0.202l0.832-0.201l0.807-0.202l0,0l2.142,2.292l0,0l-0.856,0.252l-0.832,0.227l-0.856,0.252l-0.832,0.252l-0.882,0.252
	l-0.832,0.277l-0.856,0.252l-0.832,0.277l-0.832,0.278l-0.857,0.276l-0.832,0.303l-0.856,0.277l-0.832,0.302l-0.831,0.302
	l-0.832,0.303l-0.856,0.303l-0.832,0.327l-0.831,0.327l-0.832,0.328l-0.807,0.327l-0.831,0.354l-0.857,0.353l-0.807,0.353
	l-0.806,0.353l-0.807,0.378l-0.807,0.378l-0.806,0.378l-0.806,0.403l-0.807,0.378l-0.781,0.428l-0.781,0.403l-0.781,0.429
	l-0.781,0.428l-0.781,0.428l-0.756,0.429l-0.756,0.454l-0.756,0.479l-0.756,0.479l-0.731,0.479l-0.781,0.479l-0.731,0.504l0,0
	L139.254,156.593L139.254,156.593L139.254,156.593z M146.21,212.839l0.15-0.907l0.177-0.882l0.151-0.857l0.176-0.882l0.151-0.882
	l0.177-0.882l0.176-0.882l0.151-0.882l0.176-0.882l0.177-0.882l0.176-0.882l0.177-0.882l0.176-0.882l0.176-0.882l0.177-0.907
	l0.176-0.882l0.177-0.882l0.176-0.882l0.176-0.882l0.177-0.882l0.176-0.882l0.177-0.882l0.177-0.882l0.201-0.882l0.177-0.882
	l0.176-0.882l0.176-0.882l0.202-0.882l0.176-0.882l0.177-0.882l0.202-0.882l0.176-0.883l0.176-0.907l0.202-0.857l0.177-0.882
	l0.201-0.882l0.177-0.882l0.176-0.857l0.201-0.882l0.177-0.882l0.176-0.856l0,0l0.076-0.228l0.076-0.353l0.126-0.453l0.151-0.53
	l0.176-0.629l0.202-0.681l0.227-0.731l0.277-0.781l0.277-0.806l0.302-0.832l0.328-0.857l0.353-0.807l0.378-0.806l0.403-0.756
	l0.403-0.706l0.429-0.655l0.428-0.58l0.454-0.504l0.479-0.403l0.479-0.302l0.503-0.177l0.504-0.025l0.504,0.101l0.529,0.277
	l0.529,0.454l0,0l0.378,0.832l0.302,0.856l0.277,0.857l0.202,0.882l0.15,0.882l0.126,0.883l0.076,0.932l0.051,0.907v0.907v0.908
	v0.932l-0.025,0.907l-0.025,0.907l-0.025,0.933l-0.025,0.907v0.907l0,0l-3.024,33.541L146.21,212.839L146.21,212.839L146.21,212.839
	z M171.283,208.102h0.126h0.1h0.076l0,0l0.252,1.008l0.403,1.008l0.454,1.008l0.479,0.958l0.479,0.882l0,0h-1.285h-1.285h-1.311
	h-1.311l0,0l0.353-0.555l0.605-0.982l0.73-1.159l0.681-1.185L171.283,208.102L171.283,208.102L171.283,208.102z M175.971,195.98
	l0.856-1.008l0.857-0.958l1.033-0.932l0,0l-0.025,0.957v0.958v0.933l0.025,0.932l0.05,0.882l0.101,0.882l0.126,0.856l0.176,0.807
	l0.228,0.806l0.251,0.756l0.328,0.73l0.403,0.681l0.454,0.655l0.529,0.604l0.605,0.555l0.68,0.504l0.756,0.479l0.857,0.403l0,0
	l-0.177,0.933l-0.378,0.958l-0.529,0.958l-0.68,0.882l-0.782,0.756l-0.831,0.605l-0.882,0.403l0,0l-1.185-0.025l-0.907-0.151
	l-0.756-0.277l-0.605-0.428l-0.554-0.58l-0.58-0.756l-0.63-0.983l0,0l-0.227-1.033l-0.202-0.933l-0.202-0.882l-0.151-0.806
	l-0.101-0.781l-0.075-0.756l-0.051-0.731l0.025-0.73l0.101-0.756l0.151-0.756l0.201-0.807l0.303-0.857l0.378-0.907l0.453-0.983
	L175.971,195.98L175.971,195.98L175.971,195.98z M181.741,192.931L181.741,192.931l-0.025,0.907l-0.05,0.907v0.882v0.907
	l0.025,0.882l0.05,0.882l0.126,0.857l0.177,0.856l0.227,0.832l0.328,0.832l0.402,0.781l0.479,0.756l0.604,0.731l0.731,0.705l0,0
	l0.101-0.075l0.075-0.025l0.101-0.025l0,0l0.076-0.554l0.075-0.656l0.051-0.755l0.025-0.832v-0.882l-0.025-0.907l-0.076-0.958
	l-0.126-0.932l-0.176-0.908l-0.228-0.856l-0.327-0.831l-0.353-0.731l-0.454-0.63l-0.504-0.529l-0.604-0.378L181.741,192.931
	L181.741,192.931z M184.866,212.36l0.857-0.756l0.857-1.335l0.655-1.084l0,0l0.832,0.504l0.782,0.429l0.629,0.428l0,0l-0.176,0.782
	l-0.428,0.781l-0.403,0.781l0,0l-1.21,0.025l-1.184,0.025l-1.209,0.025l0,0v-0.202v-0.176V212.36L184.866,212.36L184.866,212.36z
	 M192.98,211.907l1.159,0.277l1.185,0.303l1.185,0.251l0,0l-1.285,0.05l-1.311,0.051l-1.311,0.05l0,0v-0.327l0.151-0.328
	L192.98,211.907L192.98,211.907L192.98,211.907z M202.859,212.663l1.185-0.151l1.058-0.252l0.983-0.327l0.933-0.378l0.857-0.429
	l0.832-0.454l0.806-0.454l0.781-0.479l0.832-0.454l0,0l0.63,1.134l0.831,1.285l0.429,0.832l0,0l0.101,0.025l0.025,0.025
	l-0.101,0.025h-0.252l-0.429,0.025h-0.706h-0.983l-1.335,0.025h-1.714h-2.142H202.859L202.859,212.663L202.859,212.663z
	 M213.317,200.894l0.05-0.479l0.126-0.63l0.176-0.781l0.277-0.832l0.327-0.932l0.378-0.932l0.454-0.907l0.479-0.907l0.554-0.807
	l0.58-0.706l0.605-0.554l0.63-0.403l0.68-0.177l0,0l0.782,0.051l0.705,0.151l0.604,0.277l0.555,0.353l0.504,0.429l0.403,0.529
	l0.353,0.58l0.303,0.63l0.252,0.706l0.202,0.731l0.125,0.781l0.101,0.781l0.076,0.831l0.025,0.832v0.831l-0.051,0.832l-0.05,0.832
	l-0.076,0.781l-0.101,0.782l-0.126,0.73l-0.126,0.705l-0.126,0.631l-0.151,0.579l-0.126,0.504l0,0l-0.327,0.856l-0.353,0.832
	l-0.378,0.832l-0.429,0.781l-0.503,0.706l-0.58,0.605l-0.705,0.503l-0.807,0.328l-0.933,0.151l0,0l-0.856-0.277l-0.731-0.378
	l-0.63-0.504l-0.555-0.605l-0.428-0.654l-0.377-0.756l-0.303-0.781l-0.227-0.832l-0.176-0.857l-0.101-0.882l-0.076-0.882
	l-0.025-0.857v-0.857l0.025-0.807l0.051-0.781L213.317,200.894L213.317,200.894L213.317,200.894z M224.506,211.327L224.506,211.327
	l-0.227,0.252l-0.354,0.504l-0.327,0.503l0,0h0.429h0.428h0.403l0,0l-0.05-0.353l-0.101-0.302L224.506,211.327L224.506,211.327z
	 M232.217,212.663l0.706-0.579l0.756-0.807l0.681-0.907l0.554-0.907l0.253-0.781l0,0h0.1h0.101h0.101l0,0v1.361v1.361v1.411l0,0
	l-1.083-0.051l-1.083-0.05L232.217,212.663L232.217,212.663L232.217,212.663z M243.733,212.36l0.731-0.655l0.63-0.832l0.504-0.933
	l0.428-0.932l0.403-0.907l0,0l0.479,1.184l0.53,1.109l0.63,1.033l0.731,1.059l0,0l-0.303,0.1l-0.604,0.025h-1.386l-2.571-0.025l0,0
	l-0.075-0.075l-0.05-0.076L243.733,212.36L243.733,212.36L243.733,212.36z M249.025,202.205l0.076-0.68l0.101-0.681l0.151-0.655
	l0.176-0.655l0.227-0.655l0.252-0.605l0.251-0.604l0.303-0.605l0.328-0.555l0.353-0.529l0.378-0.504l0.378-0.453l0.403-0.454
	l0.428-0.378l0.403-0.353l0.454-0.303l0.429-0.252l0.453-0.201l0.479-0.126l0.428-0.101l0.454-0.025l0.454,0.05l0.429,0.101
	l0.428,0.176l0.403,0.227l0.403,0.328l0.378,0.403l0.378,0.504l0.353,0.554l0.302,0.656l0.303,0.755l0.277,0.832l0.252,0.958l0,0
	l-0.025,1.36l-0.076,1.286l-0.151,1.209l-0.202,1.108l-0.227,1.059l-0.302,0.958l-0.328,0.908l-0.353,0.806l-0.403,0.731
	l-0.403,0.63l-0.428,0.58l-0.454,0.479l-0.454,0.403l-0.453,0.327l0,0l-1.21,0.555l-1.185,0.252l-1.31,0.05l0,0l-0.806-0.302
	l-0.655-0.479l-0.529-0.58l-0.403-0.706l-0.327-0.781l-0.228-0.857l-0.15-0.882l-0.102-0.907l-0.05-0.907l-0.025-0.882v-0.832
	L249.025,202.205L249.025,202.205L249.025,202.205z M259.962,249.631l0.655-0.176l0.681-0.202l0.681-0.227l0.705-0.202l0.706-0.252
	l0.731-0.252l0.731-0.252l0.731-0.277l0.756-0.277l0.756-0.302l0.756-0.302l0.807-0.328l0.781-0.328l0.781-0.328l0.781-0.353
	l0.807-0.353l0.781-0.378l0.806-0.378l0.806-0.403l0.807-0.378l0.806-0.429l0.807-0.403l0.807-0.428l0.807-0.428l0.832-0.454
	l0.806-0.454l0.807-0.454l0.807-0.504l0.781-0.479l0.832-0.479l0.807-0.504l0.781-0.504l0.781-0.504l0.781-0.529l0.756-0.529
	l0.781-0.529l0.756-0.529l0.756-0.555l0.731-0.555l0.731-0.554l0.73-0.554l0.706-0.58l0.68-0.58l0.706-0.579l0.681-0.58l0.655-0.604
	l0.656-0.605l0.629-0.604l0.656-0.604l0.604-0.63l0.579-0.605l0.58-0.63l0.554-0.655l0.529-0.63l0.529-0.63l0.504-0.655l0.479-0.63
	l0,0l3.679-0.277l0,0l-0.453,0.58l-0.479,0.58l-0.479,0.604l-0.479,0.58l-0.504,0.605l-0.529,0.604l-0.529,0.605l-0.529,0.579
	l-0.529,0.58l-0.554,0.605l-0.58,0.58l-0.58,0.579l-0.58,0.58l-0.605,0.579l-0.605,0.58l-0.63,0.579l-0.63,0.58l-0.63,0.58
	l-0.63,0.554l-0.655,0.58l-0.655,0.554l-0.681,0.555l-0.68,0.555l-0.68,0.555l-0.681,0.529l-0.705,0.529l-0.706,0.555l-0.73,0.529
	l-0.706,0.504l-0.73,0.529l-0.756,0.529l-0.731,0.504l-0.756,0.504l-0.756,0.479l-0.781,0.479l-0.807,0.479l-0.781,0.479
	l-0.781,0.454l-0.781,0.454l-0.807,0.454l-0.807,0.428l-0.806,0.429l-0.807,0.403l-0.832,0.428l-0.832,0.378l-0.831,0.403
	l-0.832,0.378l-0.831,0.353l-0.857,0.378l-0.856,0.353l-0.856,0.328l-0.857,0.328l-0.882,0.302l-0.882,0.302l-0.857,0.303
	l-0.882,0.277l-0.882,0.252l-0.882,0.252l-0.882,0.252l-0.907,0.227l0,0l-1.109-1.134l-0.529-0.58L259.962,249.631L259.962,249.631
	L259.962,249.631z M265.405,212.537l0.58-0.227l0.681-0.58l0.73-0.832l0.756-0.982l0.781-1.059l0.655-0.983l0.554-0.832l0.378-0.58
	l0,0l-0.051,1.059l-0.05,1.033l-0.025,1.058l0.05,1.008l0.101,1.033l0.202,1.008l0,0h-2.621h-1.562l-0.806-0.025l-0.302-0.025
	L265.405,212.537L265.405,212.537L265.405,212.537z M280.601,212.537l0.731-0.882l0.756-0.907l0.706-0.882l0,0l0.101,0.882
	l0.201,0.983l0.328,0.932l0,0l-0.958-0.05l-0.933-0.025L280.601,212.537L280.601,212.537L280.601,212.537z M291.815,212.537
	l0.73-0.957l0.68-1.084l0.554-1.109l0.403-1.134l0,0l0.101,0.025l0.126,0.025l0.125,0.025l0,0l0.378,1.034l0.63,1.209l0.68,1.16
	l0.605,0.932l0,0l-1.26-0.025l-1.235-0.05l-1.26-0.025L291.815,212.537L291.815,212.537L291.815,212.537z M300.534,192.654
	l0.504,0.076l0.429,0.176l0.378,0.277l0.277,0.403l0.252,0.479l0.151,0.58l0.101,0.63l0.05,0.706v0.731l-0.05,0.806l-0.101,0.806
	l-0.151,0.832l-0.202,0.856l-0.251,0.832l-0.277,0.832l-0.302,0.781l-0.353,0.781l-0.378,0.706l-0.403,0.68l-0.429,0.58
	l-0.454,0.529l-0.479,0.428l-0.479,0.328l-0.504,0.227l-0.529,0.101l0,0l-0.227-0.58l-0.177-0.681l-0.126-0.781l-0.101-0.831v-0.907
	l0.025-0.933l0.126-0.983l0.125-0.983l0.176-0.982l0.227-0.983l0.277-0.932l0.302-0.907l0.353-0.832l0.378-0.781l0.403-0.681
	l0.454-0.579l0.479-0.454L300.534,192.654L300.534,192.654L300.534,192.654z M98.506,213.117L98.506,213.117l0.051,1.083
	l0.025,1.109v1.084l0,0h0.907h0.958h0.907h0.907h0.933l0.907,0.025h0.932h0.907h0.907h0.933l0.907,0.025h0.933h0.907h0.907
	l0.933,0.025h0.907h0.907h0.958l0.907,0.025h0.907l0.907,0.025l0,0l0.277,0.504l0.277,0.529l0.277,0.529l0.328,0.529l0.328,0.555
	l0.353,0.555l0.353,0.554l0.378,0.555l0.403,0.58l0.429,0.579l0.428,0.58l0.454,0.605l0.453,0.579l0.479,0.605l0.504,0.604
	l0.504,0.604l0.529,0.605l0.53,0.655l0.554,0.605l0.554,0.604l0.58,0.63l0.604,0.604l0.604,0.631l0.63,0.604l0.63,0.63l0.63,0.605
	l0.655,0.63l0.655,0.605l0.68,0.604l0.681,0.605l0.68,0.604l0.706,0.604l0.731,0.605l0.705,0.605l0.73,0.579l0.756,0.58l0.731,0.579
	l0.756,0.58l0.781,0.554l0.756,0.58l0.781,0.555l0.781,0.554l0.807,0.529l0.806,0.529l0.806,0.529l0.807,0.504l0.831,0.504
	l0.807,0.479l0.832,0.479l0.832,0.479l0.832,0.454l0.832,0.453l0.857,0.429l0.832,0.403l0.857,0.403l0.856,0.403l0.857,0.378
	l0.832,0.353l0.857,0.353l0.907,0.353l0.857,0.302l0.856,0.302l0.857,0.277l0.857,0.277l0.882,0.252l0.856,0.228l0,0l0.429-0.857
	l0.429-0.856l0.428-0.832l0,0l-0.73-0.252l-0.73-0.252l-0.706-0.252l-0.73-0.277l-0.73-0.276l-0.756-0.278l-0.731-0.302l-0.73-0.303
	l-0.73-0.302l-0.782-0.328l-0.731-0.327l-0.756-0.328l-0.73-0.327l-0.756-0.353l-0.731-0.378l-0.756-0.353l-0.73-0.378l-0.756-0.403
	l-0.731-0.378l-0.756-0.403l-0.73-0.428l-0.731-0.403l-0.756-0.454l-0.73-0.453l-0.73-0.454l-0.731-0.453l-0.73-0.454l-0.73-0.479
	l-0.731-0.479l-0.706-0.504l-0.731-0.503l-0.706-0.504l-0.706-0.529l-0.705-0.529l-0.681-0.529l-0.706-0.555l-0.68-0.555
	l-0.681-0.554l-0.681-0.58l-0.655-0.604l-0.681-0.58l-0.655-0.604l-0.655-0.605l-0.63-0.63l-0.63-0.63l-0.63-0.655l-0.63-0.655
	l-0.604-0.655l-0.63-0.706l-0.605-0.681l-0.58-0.68l-0.58-0.706l-0.58-0.706l-0.555-0.73l-0.554-0.705l-0.554-0.756l-0.529-0.756
	l-0.504-0.756l-0.529-0.756l-0.504-0.781l-0.479-0.806l-0.479-0.782l0,0l65.192-0.227l-16.959,37.069l0,0l0.706,0.303l0.706,0.277
	l0.705,0.278l0.731,0.302l0.706,0.277l0.756,0.252l0.731,0.252l0.756,0.252l0.756,0.227l0.756,0.252l0.756,0.202l0.781,0.227
	l0.781,0.202l0.807,0.202l0.781,0.201l0.806,0.202l0.806,0.176l0.807,0.177l0.832,0.177l0.856,0.151l0.831,0.177l0.832,0.151
	l0.832,0.126l0.857,0.151l0.856,0.126l0.857,0.126l0.856,0.126l0.856,0.101l0.857,0.126l0.882,0.101l0.882,0.076l0.882,0.101
	l0.882,0.075l0.882,0.076l0.882,0.075l0.933,0.076l0.882,0.05l0.907,0.05l0.908,0.05l0.882,0.05l0.907,0.051l0.907,0.025
	l0.907,0.025l0.907,0.025l0.907,0.025h0.932h0.907h0.908h0.907h0.932h0.907l0.908-0.025l0.932-0.025l0.907-0.025l0.907-0.025
	l0.933-0.051l0.907-0.05l0.907-0.025l0.907-0.05l0.932-0.075l0.907-0.051l0.907-0.05l0.908-0.076l0.907-0.076l0.883-0.075
	l0.907-0.076l0.932-0.101l0.882-0.076l0.907-0.101l0.882-0.101l0.882-0.101l0.907-0.102l0.856-0.101l0.882-0.126l0.882-0.101
	l0.883-0.126l0.856-0.126l0.856-0.125l0.857-0.126l0.856-0.126l0.857-0.151l0.832-0.126l0.856-0.151l0.832-0.151l0.832-0.151
	l0.831-0.151l0.807-0.151l0.831-0.151l0.781-0.176l0.807-0.151l0.807-0.176l0.781-0.177l0.782-0.176l0.756-0.176l0.781-0.177
	l0.756-0.176l0.756-0.176l0.73-0.202l0.731-0.176l0.731-0.227l0.756-0.202l0.706-0.176l0,0l-4.436-4.561l0,0l-0.932,0.201
	l-0.907,0.177l-0.932,0.176l-0.933,0.176l-0.907,0.151l-0.933,0.177l-0.932,0.151l-0.908,0.177l-0.932,0.151l-0.907,0.151
	l-0.932,0.151l-0.933,0.126l-0.907,0.151l-0.907,0.125l-0.933,0.151L236.35,252l-0.907,0.126l-0.907,0.125l-0.907,0.102
	l-0.907,0.126l-0.907,0.101l-0.907,0.101l-0.883,0.101l-0.907,0.102l-0.907,0.101l-0.882,0.101l-0.933,0.075l-0.882,0.076
	l-0.907,0.075l-0.882,0.076l-0.882,0.075l-0.907,0.075l-0.882,0.051l-0.882,0.051l-0.882,0.05l-0.882,0.05l-0.882,0.051
	l-0.882,0.025l-0.857,0.05l-0.882,0.025l-0.856,0.025l-0.882,0.025h-0.857l-0.882,0.025h-0.857h-0.857h-0.856H208l-0.857-0.025
	h-0.857l-0.856-0.025l-0.857-0.025l-0.832-0.05l-0.857-0.025l-0.832-0.05l-0.857-0.051l-0.832-0.05l-0.832-0.05l-0.832-0.076
	l-0.857-0.05l-0.832-0.076l-0.832-0.076l-0.831-0.101l-0.807-0.076l-0.832-0.101l-0.806-0.101l-0.832-0.101l-0.806-0.101
	l-0.806-0.126l-0.807-0.125l-0.806-0.126l-0.807-0.126l-0.807-0.15l-0.781-0.126l-0.807-0.151l-0.781-0.151l-0.807-0.177
	l-0.806-0.151l-0.782-0.176l-0.781-0.177l-0.781-0.201l-0.756-0.177l-0.781-0.201l-0.756-0.202l-0.781-0.201l-0.756-0.227
	l-0.756-0.227l-0.756-0.227l0,0l15.019-33.037l65.369-0.126l0,0l-0.277,0.832l-0.277,0.857l-0.277,0.856l-0.277,0.857l-0.277,0.857
	l-0.252,0.856l-0.252,0.857l-0.252,0.882l-0.227,0.856l-0.227,0.882l-0.202,0.857l-0.201,0.907l-0.202,0.882l-0.176,0.882
	l-0.177,0.882l-0.177,0.882l-0.151,0.882l-0.126,0.907l-0.125,0.883l-0.101,0.907l-0.101,0.907l-0.101,0.907l-0.076,0.907
	l-0.05,0.932l-0.025,0.907l-0.025,0.933l-0.025,0.933l0,0l0.277,1.108l0.277,0.807l0.454,0.504l0.731,0.101l1.134-0.277l0,0
	l0.025-0.58l-0.076-1.033l-0.024-1.512l0,0l0.05-0.303l0.051-0.403l0.075-0.554l0.076-0.655l0.126-0.756l0.126-0.856l0.151-0.932
	l0.15-0.983l0.151-1.059l0.177-1.108l0.176-1.134l0.202-1.16l0.201-1.159l0.228-1.184l0.227-1.21l0.227-1.134l0.227-1.134
	l0.252-1.084l0.252-1.033l0.251-0.983l0.278-0.907l0.251-0.832l0.277-0.73l0.252-0.63l0.277-0.503l0.277-0.378l0.277-0.252l0,0
	l66.855,0.102l0.277-3.554l0,0h-0.907h-0.958l-0.908-0.025h-0.932h-0.908h-0.932l-0.907-0.025h-0.933h-0.907h-0.933h-0.907
	l-0.932-0.025h-0.908h-0.932h-0.907h-0.933h-0.907l-0.958-0.025h-0.932l0,0l0.454-0.706l0.403-0.705l0.378-0.706l0.353-0.681
	l0.378-0.706l0.327-0.706l0.302-0.68l0.278-0.706l0.252-0.681l0.252-0.705l0.227-0.68l0.176-0.706l0.202-0.681l0.151-0.706
	l0.15-0.68l0.126-0.706l0.101-0.681l0.075-0.68l0.076-0.681l0.05-0.681l0.025-0.705l0.025-0.681v-0.681l-0.025-0.68l-0.025-0.68
	l-0.05-0.655l-0.076-0.681l-0.101-0.68l-0.101-0.655l-0.102-0.68l-0.125-0.655l-0.151-0.681l-0.177-0.655l-0.177-0.655l-0.176-0.68
	l-0.227-0.656l-0.202-0.655l-0.252-0.656l-0.227-0.629l-0.277-0.656l-0.277-0.655l-0.303-0.655l-0.302-0.655l-0.328-0.63
	l-0.302-0.63l-0.353-0.63l-0.353-0.655l-0.353-0.604l-0.378-0.63l-0.378-0.63l-0.403-0.604l-0.403-0.63l-0.403-0.605l-0.428-0.604
	l-0.454-0.604l-0.429-0.605l-0.453-0.605l-0.479-0.604l-0.479-0.58l-0.479-0.604l-0.479-0.58l-0.503-0.58l-0.504-0.579l-0.529-0.58
	l-0.529-0.58l-0.529-0.58l-0.529-0.555l-0.555-0.554l-0.555-0.554l-0.554-0.555l-0.58-0.555l-0.579-0.529l-0.605-0.554l-0.58-0.529
	l-0.58-0.529l-0.604-0.529l-0.604-0.504l-0.605-0.529l-0.605-0.504l-0.63-0.504l-0.605-0.504l-0.63-0.504l-0.63-0.504l-0.63-0.479
	l-0.63-0.479l-0.655-0.479l-0.63-0.479l-0.655-0.454l-0.655-0.479l-0.63-0.454l-0.655-0.453l-0.655-0.454l-0.656-0.453l-0.655-0.429
	l-0.68-0.428l-0.655-0.428l-0.655-0.429l-0.655-0.403l-0.681-0.403l-0.655-0.403l-0.655-0.402l-0.656-0.378l-0.655-0.403
	l-0.655-0.378l-0.655-0.353l-0.655-0.378l-0.655-0.353l-0.655-0.353l-0.655-0.353l-0.655-0.328l-0.63-0.328l-0.655-0.327
	l-0.63-0.327l-0.63-0.328l-0.63-0.303l-0.631-0.302l-0.654-0.277l-0.631-0.303l-0.604-0.277l-0.63-0.277l-0.604-0.252l-0.605-0.276
	l-0.579-0.252l-0.604-0.227l-0.58-0.251l-0.58-0.227l-0.58-0.227l-0.58-0.202l-0.554-0.201l-0.555-0.202l-0.555-0.202l-0.529-0.176
	l-0.554-0.176l-0.504-0.177l-0.529-0.151l-0.504-0.151l-0.504-0.151l-0.503-0.151l-0.479-0.126l-0.479-0.151l0,0l-0.807,0.554
	l-0.907,0.832l-0.705,0.731l0,0l0.932,0.378l0.907,0.377l0.907,0.378l0.882,0.353l0.857,0.353l0.856,0.378l0.857,0.353l0.832,0.327
	l0.807,0.353l0.831,0.353l0.782,0.328l0.806,0.353l0.781,0.328l0.756,0.353l0.781,0.328l0.756,0.353l0.731,0.327l0.756,0.328
	l0.756,0.353l0.706,0.328l0.731,0.353l0.706,0.327l0.706,0.353l0.706,0.353l0.68,0.353l0.681,0.353l0.681,0.353l0.68,0.353
	l0.681,0.378l0.655,0.353l0.681,0.378l0.655,0.378l0.655,0.403l0.655,0.403l0.655,0.403l0.655,0.403l0.63,0.428l0.655,0.403
	l0.63,0.428l0.68,0.454l0.63,0.428l0.655,0.454l0.63,0.479l0.655,0.479l0.63,0.479l0.656,0.504l0.654,0.504l0.631,0.504l0.654,0.529
	l0.656,0.529l0.655,0.554l0.655,0.58l0.655,0.579l0.655,0.58l0.681,0.604l0.655,0.63l0.681,0.63l0.68,0.655l0.681,0.655l0.68,0.681
	l0.706,0.731l0.731,0.706l0.706,0.731l0.705,0.731l0.731,0.781l0.73,0.781l0.731,0.781l0.731,0.832l0.756,0.832l0.756,0.857
	l0.781,0.882l0,0l0.327,0.328l0.328,0.378l0.353,0.428l0.328,0.454l0.327,0.479l0.328,0.529l0.302,0.555l0.328,0.604l0.302,0.604
	l0.303,0.656l0.277,0.68l0.277,0.705l0.277,0.731l0.278,0.73l0.227,0.781l0.252,0.756l0.201,0.807l0.228,0.806l0.176,0.832
	l0.177,0.832l0.151,0.832l0.126,0.857l0.126,0.856l0.101,0.857l0.05,0.857l0.05,0.857l0.025,0.882l0.025,0.856l-0.025,0.857
	l-0.05,0.832l-0.101,0.857l-0.101,0.832l-0.126,0.832l-0.177,0.807l-0.201,0.807l-0.227,0.781l-0.253,0.756l-0.302,0.73
	l-0.328,0.731l-0.378,0.705l-0.403,0.68l-0.454,0.656l-0.479,0.629l-0.529,0.58l-0.555,0.58l-0.604,0.529l-0.655,0.504l-0.681,0.453
	l0,0l-1.386,0.101l-1.084-0.126l-1.008-0.403l-1.108-0.806l0,0l-0.228-0.479l-0.151-0.503l-0.076-0.529l0,0l0.604-0.101l0.605-0.252
	l0.604-0.403l0.58-0.504l0.58-0.63l0.554-0.705l0.53-0.781l0.504-0.832l0.479-0.907l0.429-0.932l0.378-0.933l0.353-0.958
	l0.277-0.932l0.252-0.908l0,0l0.101-0.756l0.076-0.807l0.025-0.831v-0.832l-0.05-0.831l-0.126-0.807l-0.177-0.781l-0.252-0.73
	l-0.327-0.681l-0.403-0.604l-0.504-0.529l-0.58-0.429l-0.705-0.327l-0.807-0.202l-0.907-0.075l0,0l-0.882,0.327l-0.781,0.429
	l-0.706,0.479l-0.63,0.555l-0.555,0.604l-0.504,0.655l-0.428,0.706l-0.378,0.756l-0.353,0.781l-0.302,0.806l-0.278,0.832
	l-0.227,0.832l-0.252,0.882l-0.227,0.856l-0.201,0.882l0,0l-0.051,0.429l-0.176,0.63l-0.277,0.781l-0.353,0.907l-0.428,1.008
	l-0.504,1.059l-0.529,1.083l-0.555,1.034l-0.579,1.008l-0.555,0.882l-0.529,0.781l-0.504,0.58l-0.429,0.403l-0.378,0.126l0,0
	l-0.756-0.024l-0.58-0.252l-0.378-0.454l-0.251-0.63l-0.126-0.73l-0.05-0.807l0.05-0.832l0.076-0.857l0.075-0.781l0.051-0.706
	l0.025-0.604l0,0l0.075-0.176l0.101-0.428l0.177-0.655l0.227-0.857l0.227-1.008l0.277-1.108l0.303-1.21l0.303-1.26l0.302-1.26
	l0.303-1.235l0.302-1.209l0.277-1.084l0.227-0.982l0.227-0.832l0.151-0.604l0.126-0.403l0,0h-3.654l0,0l-0.076,0.781l-0.126,0.806
	l-0.15,0.832l-0.177,0.882l-0.227,0.882l-0.227,0.908l-0.251,0.907l-0.278,0.907l-0.302,0.932l-0.327,0.933l-0.328,0.933
	l-0.328,0.907l-0.328,0.907l-0.353,0.882l-0.353,0.882l-0.353,0.832l-0.328,0.831l-0.328,0.781l-0.327,0.756l-0.302,0.706l0,0
	l-0.529,0.756l-0.781,0.958l-0.883,1.008l-0.856,0.856l-0.706,0.58l-0.378,0.101l0,0l-1.285,0.076l-1.008-0.303l-0.504-0.503l0,0
	l-0.202-1.058l-0.125-1.059l-0.051-1.033l-0.025-1.059v-1.059v-1.134l0,0l0.051-0.176l0.125-0.454l0.151-0.63l0.176-0.807
	l0.227-0.958l0.252-1.059l0.277-1.159l0.302-1.21l0.302-1.235l0.278-1.235l0.302-1.185l0.252-1.134l0.251-1.033l0.227-0.882
	l0.202-0.756l0.126-0.555l0,0h-0.983h-0.983h-1.008l0,0l-0.177,0.882l-0.251,0.907l-0.252,0.907l-0.302,0.933l-0.328,0.907
	l-0.328,0.933l-0.378,0.932l-0.378,0.907l-0.402,0.907l-0.429,0.908l-0.403,0.907l-0.429,0.882l-0.428,0.856l-0.429,0.856
	l-0.429,0.832l-0.403,0.781l0,0l-0.403,0.58l-0.403,0.605l-0.429,0.68l-0.479,0.731l-0.504,0.73l-0.58,0.756l-0.604,0.731
	l-0.681,0.705l-0.781,0.68l-0.856,0.58l-0.933,0.529l-1.059,0.454l0,0l0.202-0.907l0.227-0.907l0.201-0.907l0.202-0.882l0.201-0.908
	l0.227-0.907l0.202-0.907l0.201-0.907l0.228-0.907l0.201-0.907l0.202-0.907l0.202-0.907l0.202-0.907l0.201-0.907l0.177-0.907
	l0.176-0.933l0.177-0.907l0.176-0.907l0.151-0.933l0.151-0.907l0.151-0.932l0.126-0.933l0.126-0.907l0.101-0.933l0,0l-0.856-0.051
	h-0.882h-0.882l0,0l-0.075,1.009l-0.101,0.982l-0.1,1.008l0,0l-0.202-0.075l-0.227-0.101l-0.252-0.101l0,0l-0.479-0.882
	l-0.782-0.705l-0.957-0.555l-1.059-0.403l-1.083-0.252l-0.983-0.101l0,0h-0.453l-0.656,0.151l-0.856,0.252l-0.882,0.403
	l-0.932,0.504l-0.933,0.604l-0.832,0.681l-0.68,0.73l-0.529,0.807l0,0l-0.429,0.781l-0.429,0.806l-0.378,0.807l-0.378,0.832
	l-0.353,0.832l-0.354,0.832l-0.327,0.832l-0.327,0.857l-0.303,0.832l-0.328,0.857l-0.302,0.857l-0.303,0.832l-0.328,0.856
	l-0.328,0.832l-0.353,0.856l-0.353,0.832l-0.378,0.806l-0.378,0.832l0,0l-0.655,1.083l-0.454,0.656l-0.58,0.378l-1.058,0.378l0,0
	l-0.681-0.252l-0.504-0.454l-0.403-0.58l-0.252-0.706l-0.177-0.806l-0.075-0.857v-0.907l0.051-0.907l0.075-0.907l0.101-0.882
	l0.126-0.807l0.076-0.706l0.075-0.605l0,0l0.176-1.033l0.202-0.957l0.176-0.933l0.202-0.907l0.227-0.882l0.202-0.882l0.227-0.857
	l0.252-0.882l0.227-0.882l0.277-0.882l0.277-0.932l0.277-0.958l0.277-0.982l0,0h-3.629l0,0l-0.227,0.907l-0.228,0.933l-0.227,0.882
	l-0.252,0.907l-0.227,0.882l-0.252,0.857l-0.277,0.882l-0.252,0.857l-0.277,0.856l-0.277,0.857l-0.302,0.832l-0.278,0.857
	l-0.328,0.832l-0.327,0.832l-0.328,0.857l-0.327,0.832l-0.378,0.832l-0.354,0.832l-0.402,0.856l-0.403,0.832l-0.403,0.856l0,0
	l-0.429,0.807l-0.504,0.705l-0.554,0.58l-0.58,0.429l-0.555,0.276l-0.554,0.025l-0.479-0.202l-0.403-0.479l-0.278-0.756l0,0
	l0.025-1.008l0.051-0.983l0.025-0.958l0.025-0.932l0.05-0.907l0.051-0.882l0.05-0.882l0.05-0.856l0.05-0.857l0.076-0.882l0.05-0.856
	l0.076-0.857l0.076-0.857l0.075-0.882l0.075-0.907l0.101-0.907l0.076-0.907l0.101-0.958l0.101-0.983l0.1-1.008l0.102-1.033l0,0
	h-0.983h-0.957h-1.033l0,0l-0.151,0.756l-0.151,0.781l-0.151,0.781l0,0l-0.151-0.479l-0.605-0.706l-0.932-0.756l-1.033-0.655
	l-1.008-0.479l-0.806-0.076l0,0l-1.059-0.05l-0.983,0.075l-0.907,0.201l-0.882,0.303l-0.781,0.403l-0.73,0.504l-0.681,0.529
	l-0.604,0.605l-0.555,0.605l-0.479,0.655l-0.403,0.63l-0.353,0.63l-0.277,0.579l0,0l-0.328,0.907l-0.302,0.882l-0.277,0.907
	l-0.227,0.908l-0.202,0.907l-0.176,0.908l-0.151,0.907l-0.126,0.932l-0.101,0.933l-0.05,0.933l-0.051,0.957v0.958l0,0l-0.73,0.756
	l-0.756,0.655l-0.781,0.555l-0.781,0.479l-0.807,0.378l-0.831,0.327l-0.832,0.252l-0.831,0.202l-0.832,0.126l-0.832,0.076
	l-0.807,0.025h-0.832l-0.807-0.025l-0.807-0.076l-0.781-0.076l-0.756-0.126l-0.756-0.101l-0.705-0.126l-0.655-0.126l-0.655-0.101
	l0,0l0.403-0.73l0.403-0.731l0.403-0.731l0.428-0.731l0.403-0.731l0.429-0.706l0.428-0.731l0.428-0.73l0.429-0.706l0.479-0.731
	l0.428-0.705l0.454-0.731l0.454-0.706l0.453-0.706l0.454-0.73l0.479-0.706l0.454-0.705l0.479-0.706l0.479-0.706l0.479-0.706
	l0.479-0.705l0.479-0.706l0.479-0.705l0.504-0.681l0.479-0.706l0.504-0.705l0.504-0.706l0.504-0.681l0.504-0.706l0.504-0.681
	l0.529-0.705l0.504-0.681l0.529-0.706l0.504-0.68l0.529-0.681l0.529-0.706l0.529-0.706l0.53-0.681l0.554-0.68l0.529-0.68
	l0.529-0.681l0.555-0.681l0.555-0.68l0.529-0.68l0.554-0.681l0.555-0.681l0.555-0.68l0.554-0.655l0.555-0.681l0.58-0.68l0.554-0.681
	l0.555-0.655l0.58-0.681l0.554-0.655l0.58-0.681l0.58-0.655l0.58-0.706l0.555-0.655l0.58-0.681l0.579-0.655l0.58-0.655l0.58-0.68
	l0.605-0.655l0.604-0.656l0.58-0.655l0.58-0.681l0.605-0.655l0.58-0.655l0.604-0.655l0.58-0.655l0.605-0.655l0.58-0.654l0.604-0.656
	l0.58-0.655l0.604-0.656l0.605-0.655l0.58-0.655l0.604-0.655l0.604-0.655l0.605-0.655l0.605-0.655l0.58-0.655l0.605-0.63
	l0.604-0.655l0.604-0.655l0.605-0.63l0.63-0.655l0.605-0.655l0.605-0.63l0.605-0.655l0.604-0.63l0.604-0.655l0.58-0.63l0.604-0.655
	l0.604-0.63l0.605-0.655l0.604-0.63l0.605-0.655l0.604-0.63l0.605-0.68l0.605-0.63l0.58-0.63l0,0l-0.857-0.202l-0.856-0.176
	l-0.882-0.201l-0.857-0.177l-0.857-0.151l-0.882-0.176l-0.857-0.151l-0.882-0.176l-0.857-0.151l-0.856-0.151l-0.907-0.126
	l-0.856-0.151l-0.857-0.125l-0.882-0.125l-0.856-0.127l-0.882-0.126l-0.857-0.125l-0.882-0.101l-0.857-0.101l-0.857-0.101
	l-0.882-0.101l-0.857-0.101l-0.882-0.075l-0.856-0.102l-0.882-0.075l-0.857-0.075l-0.882-0.051l-0.882-0.075l-0.856-0.051
	l-0.882-0.075l-0.856-0.051l-0.882-0.025l-0.856-0.05l-0.882-0.05l-0.857-0.025l-0.856-0.024l-0.882-0.025l-0.857-0.025h-0.882
	l-0.856-0.025h-0.882h-0.857h-0.856l-0.882,0.025h-0.857l-0.882,0.025l-0.856,0.025l-0.857,0.024l-0.882,0.025l-0.856,0.025
	l-0.882,0.05l-0.857,0.05l-0.856,0.051l-0.882,0.05l-0.857,0.051l-0.857,0.075l-0.882,0.051l-0.857,0.076l-0.856,0.076l-0.907,0.075
	l-0.857,0.101l-0.856,0.076l-0.882,0.101l-0.857,0.101l-0.856,0.101l-0.857,0.101l-0.882,0.101l-0.856,0.126l-0.857,0.126
	l-0.857,0.126l-0.882,0.126l-0.857,0.126l-0.857,0.151l-0.856,0.126l-0.882,0.151l-0.882,0.151l-0.856,0.15l-0.856,0.151
	l-0.857,0.177l-0.856,0.176l-0.856,0.151l-0.883,0.177l-0.856,0.202l0,0l5.191,4.838l0,0l0.68-0.202l0.706-0.176l0.73-0.177
	l0.731-0.177l0.756-0.15l0.756-0.177l0.781-0.151l0.807-0.126l0.806-0.151l0.807-0.126l0.832-0.125l0.856-0.101l0.857-0.126
	l0.857-0.101l0.882-0.101l0.882-0.076l0.907-0.101l0.882-0.075l0.932-0.076l0.933-0.05l0.932-0.076l0.932-0.05l0.933-0.051
	l0.958-0.051l0.958-0.025l0.932-0.05l0.958-0.025l0.982-0.025L208,142.38h0.957h0.983h0.958h0.982h0.958h0.983l0.958,0.025
	l0.958,0.025l0.982,0.025l0.958,0.025l0.958,0.05l0.958,0.025l0.958,0.051l0.933,0.051l0.958,0.05l0.932,0.05l0.932,0.05
	l0.908,0.076l0.932,0.05l0.933,0.076l0.907,0.075l0.882,0.076l0.882,0.101l0.856,0.075l0.882,0.076l0.832,0.101l0.832,0.101
	l0.832,0.101l0.807,0.101l0.806,0.101l0.781,0.101l0.781,0.101l0.756,0.126l0.731,0.126l0.731,0.101l0.705,0.125l0,0l-0.075,0.126
	l-0.101,0.151l-0.126,0.176l-0.126,0.177l-0.177,0.201l-0.176,0.201l-0.177,0.228l-0.227,0.227l-0.227,0.277l-0.252,0.251
	l-0.252,0.303l-0.277,0.276l-0.302,0.328l-0.302,0.328l-0.328,0.353l-0.353,0.353l-0.353,0.353l-0.378,0.403l-0.378,0.378
	l-0.403,0.429l-0.403,0.402l-0.428,0.454l-0.428,0.453l-0.454,0.454l-0.479,0.479l-0.454,0.479l-0.504,0.504l-0.479,0.503
	l-0.504,0.53l-0.529,0.529l-0.529,0.554l-0.529,0.555l-0.554,0.604l-0.555,0.58l-0.555,0.604l-0.579,0.605l-0.58,0.604l-0.604,0.63
	l-0.604,0.655l-0.58,0.63l-0.63,0.681l-0.605,0.655l-0.604,0.68l-0.63,0.706l-0.63,0.706l-0.655,0.706l-0.63,0.706l-0.63,0.731
	l-0.655,0.756l-0.655,0.73l-0.655,0.781l-0.655,0.756l-0.655,0.806l-0.681,0.781l-0.654,0.807l-0.656,0.781l-0.68,0.831
	l-0.655,0.807l-0.681,0.832l-0.655,0.832l-0.68,0.857l-0.655,0.832l-0.681,0.857l-0.655,0.882l-0.68,0.882l-0.655,0.856
	l-0.655,0.907l-0.655,0.882l-0.655,0.907l-0.655,0.933l-0.655,0.907l-0.63,0.932l-0.655,0.932l-0.63,0.933l-0.63,0.933l-0.631,0.958
	l-0.604,0.932l-0.63,0.958l-0.605,0.983l-0.604,0.958l-0.605,0.982l-0.604,0.958l-0.58,0.982l-0.554,1.008l-0.58,0.983l-0.555,1.008
	l-0.529,0.983l-0.554,1.008l-0.504,1.008l-0.53,1.033l-0.504,1.008l-0.503,1.008l-0.479,1.033l-0.479,1.034l0,0l-1.209-0.227
	l-1.16-0.63l-1.033-0.756l0,0l0.227-1.058l0.051-1.487l0.025-0.806l0,0l-0.051-0.807l-0.05-0.807l-0.051-0.832l-0.101-0.806
	l-0.101-0.832l-0.102-0.806l-0.151-0.807l-0.176-0.781l-0.227-0.756l-0.251-0.731l-0.277-0.706l-0.328-0.681l-0.353-0.63
	l-0.429-0.58l-0.453-0.529l-0.529-0.479l-0.58-0.429l-0.63-0.353l-0.705-0.277l-0.756-0.202l-0.832-0.126l-0.882-0.025l-0.983,0.051
	l0,0l-0.68-0.151l-0.781,0.126l-0.832,0.328l-0.832,0.479l-0.781,0.63l-0.756,0.681l-0.63,0.705l-0.479,0.655l-0.302,0.604
	l-0.101,0.454l0,0l-0.227,0.555l-0.252,0.73l-0.277,0.882l-0.327,1.008l-0.328,1.109l-0.378,1.134l-0.378,1.134l-0.378,1.084
	l-0.428,1.033l-0.428,0.932l-0.403,0.756l0,0l-0.429,1.008l-0.479,1.033l-0.504,1.033l-0.529,0.957l-0.58,0.857l-0.605,0.681
	l-0.604,0.428l-0.655,0.126l0,0l-0.151-0.201l-0.151-0.353l-0.126-0.429l-0.075-0.555l-0.076-0.655l-0.05-0.731v-0.832v-0.882
	l0.024-0.932l0.025-1.008l0.051-1.033l0.076-1.108l0.076-1.109l0.101-1.134l0.101-1.134l0.101-1.159l0.126-1.159l0.125-1.134
	l0.101-1.134l0.126-1.083l0.126-1.059l0.126-1.008l0.126-0.958l0.126-0.907l0.101-0.831l0.101-0.756l0.101-0.68l0.101-0.58
	l0.05-0.479l0,0l0.075-0.554l0.076-0.63l0.076-0.63l0.076-0.706l0.101-0.706l0.101-0.731l0.076-0.731l0.101-0.781l0.101-0.781
	l0.101-0.807l0.076-0.832l0.075-0.831l0.076-0.832l0.05-0.832l0.05-0.857l0.051-0.856v-0.832v-0.857l-0.025-0.832l-0.051-0.807
	l-0.075-0.832l-0.076-0.807l-0.125-0.781L167,167.731l-0.202-0.73l-0.201-0.706l-0.252-0.705l-0.302-0.655l-0.328-0.604l-0.353-0.58
	l-0.403-0.554l-0.453-0.504l-0.504-0.479l-0.555-0.429l-0.604-0.353l-0.63-0.328l-0.706-0.277l-0.756-0.227l0,0l-0.983,0.277
	l-0.882,0.328l-0.806,0.378l-0.731,0.428l-0.656,0.479l-0.604,0.529l-0.529,0.554l-0.479,0.605l-0.429,0.63l-0.378,0.655
	l-0.353,0.68l-0.303,0.706l-0.277,0.73l-0.252,0.756l-0.252,0.756l-0.227,0.781l-0.227,0.806l-0.227,0.781l-0.228,0.781
	l-0.227,0.781l-0.252,0.781l0,0l-0.101-0.957l-0.101-0.933l-0.076-0.907l-0.101-0.907l-0.126-0.857l-0.126-0.831l-0.177-0.807
	l-0.201-0.807l-0.252-0.756l-0.302-0.756l-0.378-0.756l-0.454-0.731l-0.554-0.706l-0.604-0.706l-0.731-0.706l0,0l-1.26-0.378
	l-1.159-0.126l-1.033,0.05l-0.907,0.202l-0.832,0.353l-0.705,0.429l-0.58,0.504l-0.504,0.529l-0.403,0.529l-0.327,0.479
	l-0.252,0.403l-0.151,0.302l-0.075,0.151l0,0l-0.504,1.008l-0.479,0.982l-0.428,0.958l-0.403,0.983l-0.403,0.958l-0.378,1.033
	l-0.378,1.034l0,0h-0.076h-0.101h-0.101l0,0l-0.328-1.94l-0.327-1.462l-0.303-1.109l-0.303-0.831l-0.327-0.58l-0.378-0.428
	l-0.403-0.328l-0.479-0.277l-0.555-0.277l0,0l-0.63-0.051l-0.604-0.025l-0.605,0.025l-0.604,0.051l-0.58,0.101l-0.58,0.126
	l-0.604,0.151l-0.555,0.201l-0.555,0.252l-0.554,0.252l-0.529,0.303l-0.529,0.328l-0.504,0.353l-0.504,0.378l-0.479,0.403
	l-0.504,0.454l-0.454,0.454l-0.479,0.504l-0.454,0.503l-0.429,0.554l-0.453,0.58l-0.403,0.58l-0.429,0.605l-0.403,0.63l-0.378,0.63
	l-0.378,0.655l-0.378,0.681l-0.353,0.705l-0.353,0.706l-0.328,0.73l-0.328,0.756l-0.328,0.731l-0.302,0.781l-0.302,0.782
	l-0.277,0.781l-0.277,0.806l-0.252,0.807l-0.252,0.807l-0.227,0.831l-0.227,0.856l-0.227,0.832l-0.201,0.832l-0.177,0.856
	l-0.201,0.832l-0.177,0.857l-0.151,0.832l-0.151,0.857l-0.126,0.856l-0.125,0.857l-0.102,0.832l-0.101,0.857l-0.076,0.832
	l-0.076,0.832l-0.05,0.832l-0.051,0.806l-0.025,0.832l-0.025,0.806v0.781v0.781v0.781l0.05,0.781l0.025,0.731l0.075,0.755
	l0.051,0.706l0.101,0.731l0.101,0.68l0.102,0.681l0.125,0.655l0.126,0.63l0.151,0.63l0.177,0.605l0.176,0.58l0.202,0.555
	l0.202,0.529l0.227,0.504l0.227,0.504l0.252,0.453l0.252,0.429l0.277,0.428l0.302,0.378l0,0h-0.932h-0.958h-0.907h-0.933h-0.907
	h-0.932h-0.907h-0.933h-0.933h-0.907h-0.933h-0.932h-0.907h-0.933h-0.933h-0.933h-0.907h-0.957H98.506z"/>
</svg>
